<svg width="23" height="22" viewBox="0 0 23 22" fill="none" xmlns="http://www.w3.org/2000/svg">
<path d="M15.329 4.65234L13.671 6.31041C13.5112 6.47017 13.5112 6.73142 13.671 6.89118L16.1832 9.40342H5.96284C5.73704 9.40342 5.55203 9.58819 5.55203 9.81424V12.1589C5.55203 12.3847 5.7368 12.5698 5.96284 12.5698H16.1832L13.671 15.082C13.5112 15.2418 13.5112 15.503 13.671 15.6628L15.329 17.3208C15.4888 17.4806 15.7501 17.4806 15.9098 17.3208L21.9324 11.298C22.0177 11.2128 22.056 11.0986 22.0502 10.9865C22.056 10.8743 22.0177 10.7602 21.9324 10.675L15.9098 4.65234C15.7501 4.49257 15.4888 4.49257 15.329 4.65234ZM1.19282 0.233399H10.6761C10.6761 0.233399 10.8043 0.23267 10.9094 0.344843C10.991 0.431765 10.991 0.55535 10.991 0.55535V2.73787C10.991 2.73787 10.9907 2.83013 10.9019 2.92871C10.8098 3.03068 10.6916 3.03068 10.6916 3.03068H3.62712V18.9423H10.6761C10.6761 18.9423 10.8043 18.9415 10.9094 19.0537C10.991 19.1406 10.991 19.2642 10.991 19.2642V21.4467C10.991 21.4467 10.9907 21.539 10.9019 21.6376C10.8098 21.7395 10.6916 21.7395 10.6916 21.7395H1.18651C0.990566 21.7395 0.830078 21.5791 0.830078 21.3831V0.596383C0.829835 0.396802 0.993237 0.233399 1.19282 0.233399Z" fill="black"/>
</svg>
