<svg width="16" height="16" viewBox="0 0 16 16" fill="none" xmlns="http://www.w3.org/2000/svg">
<g clip-path="url(#clip0_776_1388)">
<mask id="mask0_776_1388" style="mask-type:luminance" maskUnits="userSpaceOnUse" x="0" y="0" width="16" height="16">
<path d="M15.5172 0.450195H0.568359V15.399H15.5172V0.450195Z" fill="white"/>
</mask>
<g mask="url(#mask0_776_1388)">
<path d="M8.04273 0.450195C3.92139 0.450195 0.568359 3.80314 0.568359 7.92456C0.568359 12.0459 3.92139 15.399 8.04273 15.399C12.1641 15.399 15.5171 12.0459 15.5171 7.92456C15.5171 3.80314 12.1642 0.450195 8.04273 0.450195ZM12.3347 6.66207L7.63888 11.3578C7.43921 11.5575 7.1738 11.6674 6.89146 11.6674C6.60913 11.6674 6.34372 11.5575 6.14405 11.3578L3.75082 8.9646C3.55115 8.76494 3.44118 8.49953 3.44118 8.21719C3.44118 7.93478 3.55115 7.66936 3.75082 7.4697C3.9504 7.27003 4.21581 7.16006 4.49823 7.16006C4.78057 7.16006 5.04606 7.27003 5.24564 7.46978L6.89139 9.11544L10.8397 5.16717C11.0393 4.96751 11.3048 4.85761 11.5871 4.85761C11.8694 4.85761 12.1348 4.96751 12.3345 5.16717C12.7468 5.57944 12.7468 6.24996 12.3347 6.66207Z" fill="#FFB449"/>
</g>
</g>
<defs>
<clipPath id="clip0_776_1388">
<rect width="16" height="16" fill="white"/>
</clipPath>
</defs>
</svg>
